<svg width="234" height="61" viewBox="0 0 234 61" fill="none" xmlns="http://www.w3.org/2000/svg">
<path fill-rule="evenodd" clip-rule="evenodd" d="M36.951 2.28479C33.3283 0.784213 29.4469 0.00809009 25.5261 6.16196e-05C25.526 6.15848e-05 25.526 4.7801e-05 25.526 3.08098e-05C25.526 1.3794e-05 25.526 0 25.526 0H25.4735H25.4646H15.7465H1.90635C0.853503 0 6.1766e-07 0.853502 5.71639e-07 1.90635L0 14.9839L6.54968e-07 45.0471V58.1246C6.54968e-07 59.1775 0.853503 60.031 1.90635 60.031H15.7465H25.4646H25.526C25.526 60.031 25.526 60.031 25.526 60.0309C25.526 60.0309 25.526 60.0309 25.5261 60.0309C29.4469 60.0229 33.3283 59.2468 36.951 57.7462C40.5927 56.2378 43.9016 54.0268 46.6888 51.2396C49.4759 48.4524 51.6869 45.1436 53.1953 41.5019C54.7037 37.8603 55.4801 33.9572 55.4801 30.0155C55.4801 26.0738 54.7037 22.1707 53.1953 18.5291C51.6869 14.8874 49.4759 11.5785 46.6888 8.79133C43.9016 6.00414 40.5927 3.79321 36.951 2.28479ZM25.4527 45.0471C25.4593 45.0471 25.4646 45.0417 25.4646 45.0352C25.4646 45.0286 25.4699 45.0232 25.4765 45.0232C27.4433 45.0217 29.3907 44.6335 31.2078 43.8808C33.0286 43.1266 34.6831 42.0212 36.0767 40.6276C37.4703 39.234 38.5757 37.5795 39.3299 35.7587C40.0842 33.9379 40.4723 31.9863 40.4723 30.0155C40.4723 28.0446 40.0842 26.0931 39.3299 24.2723C38.5757 22.4515 37.4703 20.797 36.0767 19.4034C34.6831 18.0098 33.0286 16.9044 31.2078 16.1501C29.3907 15.3975 27.4433 15.0093 25.4765 15.0077C25.4699 15.0077 25.4646 15.0024 25.4646 14.9958C25.4646 14.9893 25.4593 14.9839 25.4527 14.9839H17.6528C16.6 14.9839 15.7465 15.8374 15.7465 16.8903V43.1407C15.7465 44.1936 16.6 45.0471 17.6528 45.0471H25.4527Z" fill="#D94F1E"/>
<path d="M65.0118 1.90635C65.0118 0.853502 65.8653 0 66.9182 0L78.8519 0C79.9048 0 80.7583 0.853502 80.7583 1.90635L80.7583 58.1246C80.7583 59.1775 79.9048 60.031 78.8519 60.031H66.9182C65.8653 60.031 65.0118 59.1775 65.0118 58.1246L65.0118 1.90635Z" fill="#D94F1E"/>
<path fill-rule="evenodd" clip-rule="evenodd" d="M91.0024 7.81081C90.6082 6.84022 91.071 5.7334 92.0388 5.33235L103.087 0.754021C104.064 0.348939 105.185 0.81745 105.583 1.79779L116.259 28.0835C116.902 29.6688 119.147 29.6688 119.791 28.0835L130.467 1.79779C130.865 0.81745 131.985 0.348939 132.963 0.754021L144.011 5.33235C144.979 5.7334 145.441 6.84022 145.047 7.81081L126.533 53.3952L124.325 58.8409C124.034 59.5603 123.335 60.0309 122.559 60.0309H118.027H118.022H113.491C112.715 60.0309 112.016 59.5603 111.724 58.8409L109.516 53.3952L91.0024 7.81081Z" fill="#D94F1E"/>
<path d="M180.236 0.0190662C196.813 0.0190664 210.251 13.4575 210.251 30.0346C210.251 46.6117 196.813 60.05 180.236 60.05C163.659 60.05 150.22 46.6117 150.22 30.0346C150.22 13.4575 163.659 0.019066 180.236 0.0190662ZM180.236 44.3888C188.164 44.3888 194.59 37.9622 194.59 30.0346C194.59 22.1069 188.164 15.6803 180.236 15.6803C172.308 15.6803 165.882 22.1069 165.882 30.0346C165.882 37.9622 172.308 44.3888 180.236 44.3888Z" fill="#D94F1E"/>
<path d="M224.294 42.0886C229.248 42.0886 233.265 46.1051 233.265 51.0598C233.265 56.0144 229.248 60.0309 224.294 60.0309C219.339 60.0309 215.322 56.0144 215.322 51.0598C215.322 46.1051 219.339 42.0886 224.294 42.0886Z" fill="black"/>
</svg>
